<?xml version="1.0" encoding="UTF-8" standalone="no"?>
<!-- Generator: Adobe Illustrator 25.3.1, SVG Export Plug-In . SVG Version: 6.00 Build 0)  -->

<svg
   version="1.0"
   id="Layer_1"
   x="0px"
   y="0px"
   viewBox="0 0 300 300"
   style="enable-background:new 0 0 300 300;"
   xml:space="preserve"
   sodipodi:docname="favicon.svg"
   inkscape:version="1.2.2 (732a01da63, 2022-12-09)"
   xmlns:inkscape="http://www.inkscape.org/namespaces/inkscape"
   xmlns:sodipodi="http://sodipodi.sourceforge.net/DTD/sodipodi-0.dtd"
   xmlns="http://www.w3.org/2000/svg"
   xmlns:svg="http://www.w3.org/2000/svg"><defs
   id="defs11" /><sodipodi:namedview
   id="namedview9"
   pagecolor="#ffffff"
   bordercolor="#000000"
   borderopacity="0.25"
   inkscape:showpageshadow="2"
   inkscape:pageopacity="0.0"
   inkscape:pagecheckerboard="0"
   inkscape:deskcolor="#d1d1d1"
   showgrid="false"
   inkscape:zoom="2.7633333"
   inkscape:cx="131.36309"
   inkscape:cy="150.18094"
   inkscape:window-width="1920"
   inkscape:window-height="1009"
   inkscape:window-x="-8"
   inkscape:window-y="-8"
   inkscape:window-maximized="1"
   inkscape:current-layer="Layer_1" />
<g
   id="g6"
   style="fill:#00d1b2;fill-opacity:1">
	<path
   d="M134.46,138.86c-29.73-29.73-68.16-39.5-85.84-21.83c-17.67,17.68-7.9,56.11,21.82,85.84   c29.73,29.73,68.16,39.5,85.84,21.82S164.19,168.58,134.46,138.86z M125.21,193.62c-7.48,7.47-23.72,3.34-36.29-9.23   c-12.57-12.57-16.7-28.81-9.22-36.28c7.47-7.48,23.71-3.35,36.28,9.22C128.55,169.9,132.68,186.14,125.21,193.62z"
   id="path2"
   style="fill:#00d1b2;fill-opacity:1" />
	<path
   d="M260.19,195.92l-90.95,90.96l-0.16-82.16c0.23-2.76,0.23-5.65-0.02-8.63c-0.28-3.59-0.92-7.33-1.9-11.2   c-4.28-16.85-14.8-34.3-29.62-49.11c-19.85-19.85-44.03-31.7-64.69-31.7c-11.03,0-20.35,3.48-26.98,10.07l90.64-90.63l0.41-0.41   c6.62-6.53,15.91-9.99,26.88-9.99c20.66,0,44.85,11.85,64.69,31.7c14.82,14.82,25.35,32.26,29.63,49.12   c0.98,3.86,1.62,7.6,1.9,11.19l0.02,8.64L260.19,195.92z"
   id="path4"
   style="fill:#00d1b2;fill-opacity:1" />
</g>
</svg>
